<svg width="50" height="50" viewBox="0 0 50 50" fill="none" xmlns="http://www.w3.org/2000/svg">
<g clip-path="url(#clip0_115942_5260)">
<rect width="50" height="50" rx="25" fill="white"/>
<path d="M50 0H0V50H50V0Z" fill="#444DF2"/>
<path d="M39.98 29.71C40.46 30.81 41.23 31.76 41.82 32.8C42.41 33.84 42.81 35.09 42.48 36.24C42.77 36.31 43 35.98 43.11 35.7C43.75 33.99 43.06 31.2 42.44 29.54C41.65 27.41 39.95 25.57 39.86 23.3C39.1 25.32 39.1 27.72 39.98 29.71Z" fill="#797EF3"/>
<path d="M38.72 7.37012C40.08 9.02012 41.14 11.0401 41.1 13.1801C41.08 13.9301 40.93 14.6601 40.78 15.3901C40.47 16.8901 40.16 18.3801 39.85 19.8801C39.77 20.2501 39.7 20.6201 39.5 20.9401C39.04 21.6901 37.99 21.9301 37.17 21.6301C36.35 21.3301 35.74 20.5801 35.42 19.7701C34.92 18.5301 34.98 17.1101 35.35 15.8301C35.72 14.5401 36.38 13.3601 37.06 12.2101C37.57 11.3501 38.11 10.4801 38.91 9.88012L38.72 7.37012Z" fill="#797EF3"/>
<path d="M30.89 50.0001H20.17C20.16 50.0001 20.16 50.0001 20.15 50.0001C18.34 49.9101 16.51 49.9701 14.69 49.9901C14.33 49.9901 13.97 50.0001 13.6 50.0001C13.67 49.7601 13.74 49.5301 13.8 49.3001C14.94 45.3501 15.49 41.5201 15.69 37.4701C15.73 36.6901 15.75 35.9001 15.77 35.1101C16.04 35.1901 16.31 35.2601 16.59 35.3301C16.65 35.3501 16.7 35.3601 16.76 35.3701C17.22 35.4801 17.68 35.5801 18.15 35.6501C22.23 36.3501 26.44 35.9101 30.59 35.8601C32.23 35.8401 31.48 39.0501 30.83 41.5601C30.83 41.5701 30.82 41.5801 30.82 41.5901C30.53 42.6801 30.27 43.6401 30.23 44.1401C30.08 46.1101 30.23 48.1501 30.89 50.0001Z" fill="#E8C5AA"/>
<path d="M34.55 8.79007C33.6 8.11007 32.46 7.68007 31.25 7.26007C25.87 5.39007 19.23 5.95007 15.04 10.1301C13.44 11.7201 12.29 13.7401 11.68 15.9201C11.02 18.2701 11.36 20.3501 11.51 22.7201C11.74 26.4801 12.33 30.4601 14.77 33.3301C18.9 38.1901 25.4 41.2401 31.73 41.6501C33.7 41.7801 35.89 41.5201 37.59 40.4601C38.61 39.8201 39.45 38.8401 39.85 37.6901C40.12 36.9101 40 36.0201 40.14 35.2001C40.41 33.5801 40.97 32.0301 41.17 30.4001C41.38 28.6801 41.34 26.9401 41.19 25.2201C41.1 24.1601 41.07 23.0701 40.79 22.0401C40.51 21.0001 39.98 20.0701 39.66 19.0301C39.02 16.9401 38.42 14.6501 37.43 12.7001C36.73 11.3301 35.81 9.68007 34.55 8.79007Z" fill="#F4D3B8"/>
<path d="M32.3835 23.4833C33.1634 23.3015 33.5465 22.0858 33.2392 20.768C32.9319 19.4502 32.0506 18.5294 31.2707 18.7112C30.4908 18.8931 30.1076 20.1088 30.4149 21.4266C30.7222 22.7444 31.6036 23.6652 32.3835 23.4833Z" fill="#1B1464"/>
<path d="M38.211 20.9381C38.824 20.7951 39.127 19.8461 38.888 18.8191C38.649 17.7921 37.957 17.0751 37.344 17.2181C36.731 17.3611 36.428 18.3101 36.668 19.3371C36.907 20.3641 37.598 21.0811 38.211 20.9381Z" fill="#1B1464"/>
<path d="M39.5881 24.903C39.7391 25.084 39.7701 25.412 39.5531 25.967C39.3491 26.489 38.9981 27.017 38.7361 27.399L39.6441 28.02C39.9021 27.643 40.3221 27.021 40.5771 26.367C40.8201 25.747 41.0001 24.875 40.4321 24.196L39.5881 24.903ZM37.4801 24.055C37.8931 24.256 38.4291 24.371 38.7721 24.474C39.1681 24.592 39.4281 24.716 39.5941 24.909L40.4281 24.192C40.0441 23.745 39.5191 23.549 39.0871 23.42C38.6021 23.275 38.2681 23.215 37.9611 23.066L37.4801 24.055ZM35.1761 21.02C35.3761 22.386 36.3011 23.477 37.4781 24.054L37.9621 23.066C37.0591 22.623 36.4041 21.814 36.2641 20.86L35.1761 21.02ZM38.7361 27.399C38.5641 27.65 38.6291 27.992 38.8791 28.163C39.1291 28.334 39.4721 28.27 39.6431 28.02L38.7361 27.399ZM40.0101 24.55L40.4321 24.197C40.4301 24.195 40.4291 24.193 40.4271 24.192L40.0101 24.55ZM37.7201 23.56L37.4781 24.054C37.4791 24.054 37.4791 24.055 37.4801 24.055L37.7201 23.56ZM36.2641 20.86C36.2201 20.559 35.9411 20.352 35.6401 20.396C35.3391 20.44 35.1321 20.719 35.1761 21.02L36.2641 20.86Z" fill="#1B1464"/>
<path d="M33.04 32.449C34.666 32.331 36.636 32.175 38.065 30.971L37.356 30.13C36.245 31.066 34.655 31.23 32.961 31.352L33.04 32.449ZM30.401 32.377C31.303 32.577 32.224 32.508 33.04 32.449L32.961 31.352C32.117 31.413 31.358 31.463 30.64 31.304L30.401 32.377ZM37.63 33.022C35.378 33.952 32.546 33.291 30.931 31.475L30.109 32.206C32.034 34.37 35.362 35.149 38.05 34.039L37.63 33.022ZM38.064 30.971C38.296 30.775 38.326 30.428 38.13 30.196C37.934 29.964 37.587 29.934 37.355 30.13L38.064 30.971ZM30.52 31.84L30.639 31.303C30.406 31.251 30.166 31.356 30.045 31.561C29.924 31.767 29.95 32.027 30.108 32.205L30.52 31.84ZM38.05 34.038C38.331 33.922 38.464 33.6 38.348 33.32C38.232 33.039 37.91 32.906 37.63 33.022L38.05 34.038Z" fill="#1B1464"/>
<path d="M28.721 16.6999C27.808 17.1179 26.921 17.8429 26.502 18.8489L27.517 19.2719C27.798 18.5969 28.431 18.0419 29.178 17.7009L28.721 16.6999ZM32.298 16.2609C31.027 16.0069 29.92 16.1549 28.723 16.6999L29.178 17.7009C30.18 17.2449 31.053 17.1339 32.083 17.3399L32.298 16.2609ZM26.502 18.8479C26.385 19.1279 26.518 19.4499 26.798 19.5669C27.078 19.6839 27.4 19.5509 27.517 19.2709L26.502 18.8479ZM28.95 17.1999L28.722 16.6989C28.722 16.6989 28.721 16.6989 28.721 16.6999L28.95 17.1999ZM32.082 17.3389C32.38 17.3989 32.67 17.2049 32.729 16.9079C32.789 16.6099 32.595 16.3199 32.298 16.2609L32.082 17.3389Z" fill="#1B1464"/>
<path d="M36.0899 15.26C36.2499 15.786 36.2499 15.786 36.2489 15.786C36.2489 15.786 36.2489 15.786 36.2499 15.786C36.2509 15.786 36.2539 15.785 36.2569 15.784C36.2639 15.782 36.2769 15.778 36.2939 15.774C36.3279 15.765 36.3789 15.753 36.4449 15.739C36.5769 15.711 36.7629 15.68 36.9729 15.666C37.4109 15.636 37.8699 15.687 38.2029 15.902L38.7999 14.978C38.1719 14.573 37.4259 14.533 36.8999 14.569C36.6279 14.587 36.3899 14.627 36.2209 14.663C36.1359 14.681 36.0669 14.698 36.0169 14.71C35.9919 14.716 35.9729 14.722 35.9579 14.726C35.9509 14.728 35.9449 14.73 35.9409 14.731C35.9389 14.732 35.9369 14.732 35.9349 14.733C35.9339 14.733 35.9339 14.733 35.9329 14.734H35.9319C35.9299 14.734 35.9299 14.734 36.0899 15.26ZM38.2019 15.902C38.4569 16.067 38.7979 15.994 38.9619 15.738C39.1259 15.482 39.0539 15.142 38.7979 14.978L38.2019 15.902ZM35.9299 14.734C35.6389 14.822 35.4749 15.129 35.5629 15.42C35.6509 15.711 35.9579 15.875 36.2489 15.787L35.9299 14.734Z" fill="#1B1464"/>
<path d="M30.78 11.4201C30.96 11.6501 31.15 11.8801 31.34 12.1001C32.68 13.6501 34.48 13.5901 36.4 13.7901C37.83 13.9301 39.36 14.3101 40.24 15.4501C40.96 16.3901 41.08 17.6801 40.9 18.8501C40.83 19.3401 40.71 19.8201 40.66 20.3101C40.5 21.8801 41.08 23.4801 42.1 24.6701C43.12 25.8701 44.57 26.6701 46.09 27.0401C45.29 26.3201 44.48 25.5901 43.88 24.6801C43.2 23.6401 42.83 22.4101 42.84 21.1701C42.85 19.9001 43.24 18.6601 43.5 17.4201C44.08 14.6501 43.9 11.7501 43.12 9.04008C42.47 6.80008 41.35 3.72008 39.26 2.43008C37.54 1.36008 35.67 0.82008 33.62 0.98008C31.88 1.12008 30.13 1.93008 29.14 3.38008C27.44 5.87008 29.14 9.31008 30.78 11.4201Z" fill="#797EF3"/>
<path d="M30.25 6.93998C30.1 7.04998 29.95 7.14998 29.8 7.24998C29.6 7.37998 29.4 7.50998 29.2 7.62998C29.07 7.70998 28.94 7.78998 28.81 7.86998C26.8 9.14998 24.78 10.43 22.95 11.96C21.79 12.93 20.71 13.98 19.65 15.05C19.17 15.53 18.55 15.97 18.12 16.48C17.7 16.98 17.71 17.51 17.64 18.16C17.63 18.26 17.62 18.37 17.6 18.47C17.22 21.74 16.84 25.01 16.45 28.27C16.17 30.63 16.41 32.91 16.57 35.19C16.57 35.23 16.58 35.27 16.58 35.31C16.66 36.57 16.72 37.83 16.65 39.12C16.63 39.49 16.6 39.86 16.55 40.23C16.39 41.61 16.22 42.98 16.06 44.36C15.85 46.14 15.63 47.96 14.88 49.59C14.82 49.72 14.75 49.86 14.68 49.99H5.2C4.97 49.79 4.76 49.59 4.61 49.35C4.02 48.39 4.31 46.65 4.67 45.67C5.06 44.64 5.74 43.74 6.21 42.75C6.68 41.75 6.91 40.53 6.38 39.57C6.15 39.15 5.8 38.82 5.51 38.44C4.22 36.68 4.66 34.23 5.29 32.14C5.92 30.05 6.69 27.79 5.91 25.75C5.54 24.79 4.85 23.98 4.42 23.04C3.25 20.46 4.25 17.38 5.83 15.03C6.48 14.06 7.23 13.14 7.65 12.05C8.11 10.86 8.14 9.54998 8.33 8.28998C8.52 7.02998 8.94 5.70998 9.95 4.91998C10.78 4.26998 11.84 4.10998 12.81 3.75998C13.8 3.39998 14.61 2.78998 15.5 2.24998C17.57 0.999983 19.93 0.309983 22.35 0.269983C24.12 0.249983 25.89 0.549983 27.57 1.08998C28.63 1.42998 29.28 1.85998 29.9 2.48998C30.22 2.81998 30.54 3.20998 30.9 3.65998C31.17 3.99998 31.44 4.34998 31.52 4.76998C31.68 5.65998 31 6.38998 30.25 6.93998Z" fill="#797EF3"/>
<path d="M13.52 20.1901C12.88 19.4301 11.99 18.9301 10.77 18.9001C8.97996 18.8601 7.25996 20.0901 6.61996 21.7601C5.57996 24.4501 7.31996 27.7401 9.66996 29.1201C11.76 30.3501 14.21 29.6301 14.82 27.2001C15.09 26.1201 14.98 24.9801 14.88 23.8801C14.74 22.5501 14.34 21.1701 13.52 20.1901Z" fill="#F4D3B8"/>
<path d="M12.4 24.44C12.473 23.895 12.472 23.895 12.472 23.895C12.472 23.895 12.472 23.895 12.471 23.895H12.47C12.469 23.895 12.468 23.895 12.467 23.895C12.464 23.895 12.461 23.894 12.457 23.894C12.449 23.893 12.438 23.892 12.425 23.89C12.398 23.887 12.361 23.883 12.314 23.88C12.221 23.873 12.091 23.865 11.937 23.864C11.632 23.862 11.212 23.886 10.787 23.996C10.366 24.105 9.89298 24.311 9.54098 24.709C9.17398 25.123 8.99098 25.685 9.05198 26.388L10.148 26.293C10.109 25.846 10.226 25.595 10.365 25.438C10.519 25.264 10.759 25.139 11.063 25.061C11.363 24.983 11.68 24.963 11.932 24.964C12.056 24.965 12.158 24.971 12.229 24.976C12.264 24.979 12.291 24.981 12.308 24.983C12.317 24.984 12.323 24.985 12.326 24.985C12.328 24.985 12.329 24.985 12.329 24.985C12.327 24.985 12.327 24.985 12.4 24.44ZM8.89998 22.34C8.98198 22.884 8.98198 22.884 8.98198 22.884C8.98198 22.884 8.98398 22.884 8.98598 22.883C8.98998 22.882 8.99698 22.882 9.00598 22.88C9.02498 22.878 9.05498 22.874 9.09498 22.87C9.17398 22.862 9.28998 22.854 9.43098 22.851C9.71498 22.845 10.085 22.863 10.45 22.949C10.817 23.035 11.148 23.183 11.392 23.413C11.624 23.633 11.812 23.959 11.853 24.48L12.95 24.396C12.89 23.618 12.591 23.031 12.148 22.613C11.717 22.206 11.185 21.991 10.703 21.877C10.218 21.763 9.74998 21.743 9.40998 21.75C9.23798 21.753 9.09498 21.764 8.99298 21.773C8.94198 21.778 8.90098 21.783 8.87198 21.786C8.85698 21.788 8.84598 21.789 8.83698 21.791C8.83298 21.792 8.82898 21.792 8.82598 21.792C8.82498 21.792 8.82298 21.792 8.82298 21.793H8.82198C8.82198 21.793 8.82198 21.793 8.82098 21.793C8.81798 21.796 8.81798 21.796 8.89998 22.34ZM9.05198 26.388C9.07798 26.691 9.34498 26.915 9.64798 26.888C9.95098 26.862 10.175 26.595 10.148 26.292L9.05198 26.388ZM12.4 24.44L12.327 24.985C12.491 25.007 12.657 24.953 12.778 24.839C12.899 24.725 12.961 24.563 12.948 24.397L12.4 24.44ZM8.81798 21.796C8.51798 21.842 8.31098 22.122 8.35698 22.422C8.40298 22.722 8.68298 22.929 8.98298 22.883L8.81798 21.796Z" fill="#EABC97"/>
<path d="M14.83 13.6901C15.44 11.9801 16.46 10.3601 17.5 8.90009C18.51 7.47009 19.88 6.30009 21.45 5.52009C22.92 4.80009 24.62 4.42009 26.2 4.84009C28.78 5.53009 30.35 8.75009 29.06 11.1901C28.55 12.1601 27.58 12.7901 26.68 13.4001C23.79 15.3801 20.96 17.9201 20.22 21.3401C19.76 23.4501 20.17 25.6401 19.83 27.7601C19.56 29.3901 18.8 30.7701 18.32 32.3001C17.81 33.8801 18.08 35.7401 18.55 37.3001C19.08 39.0501 19.95 40.6601 20.8 42.2801C21.43 43.4801 22.04 45.0001 21.26 46.1101C21.64 45.0901 21.22 43.9201 20.54 43.0701C19.86 42.2201 18.95 41.5901 18.15 40.8501C16.3 39.1201 15.09 36.7301 14.74 34.2301C14.59 33.1901 14.47 32.0701 14.4 31.0101C14.32 29.7401 14.85 28.4801 14.99 27.2201C15.25 24.8401 14.14 23.0101 13.93 20.8001C13.71 18.4801 14.04 15.9101 14.83 13.6901Z" fill="#797EF3"/>
<path d="M30.35 41.6501C30.35 41.1001 30.35 41.1001 30.35 41.1001C30.349 41.1001 30.348 41.1001 30.345 41.1001C30.34 41.1001 30.332 41.1001 30.32 41.1001C30.297 41.0991 30.261 41.0981 30.212 41.0961C30.115 41.0921 29.969 41.0831 29.778 41.0641C29.397 41.0281 28.84 40.9541 28.152 40.8061C26.775 40.5101 24.875 39.9151 22.803 38.7231L22.255 39.6771C24.442 40.9351 26.453 41.5661 27.921 41.8821C28.655 42.0401 29.255 42.1201 29.674 42.1601C29.884 42.1801 30.049 42.1901 30.163 42.1951C30.22 42.1981 30.265 42.1991 30.296 42.2001C30.312 42.2001 30.324 42.2011 30.333 42.2011C30.337 42.2011 30.341 42.2011 30.344 42.2011C30.345 42.2011 30.347 42.2011 30.347 42.2011H30.348C30.35 42.2001 30.35 42.2001 30.35 41.6501ZM22.804 38.7231C22.541 38.5721 22.204 38.6621 22.053 38.9261C21.902 39.1901 21.992 39.5261 22.256 39.6771L22.804 38.7231ZM30.35 42.2001C30.654 42.2001 30.9 41.9541 30.9 41.6501C30.9 41.3461 30.654 41.1001 30.35 41.1001V42.2001Z" fill="#1B1464"/>
</g>
<circle cx="43" cy="43" r="6" fill="#686868" stroke="white" stroke-width="2"/>
<defs>
<clipPath id="clip0_115942_5260">
<rect width="50" height="50" rx="25" fill="white"/>
</clipPath>
</defs>
</svg>
