<svg width="50" height="50" viewBox="0 0 50 50" fill="none" xmlns="http://www.w3.org/2000/svg">
<g clip-path="url(#clip0_115855_8563)">
<rect width="50" height="50" rx="25" fill="white"/>
<path d="M50 0H0V50H50V0Z" fill="#797EF3"/>
<path d="M30.991 50H12.629C13.074 48.369 13.435 46.924 13.502 46.621C14.087 43.94 14.457 41.22 14.605 38.491C14.682 37.076 14.7 35.658 14.658 34.242C14.629 33.261 14.182 31.693 14.627 30.758C15.479 28.965 19.44 31.07 21.199 31.299C24.22 31.693 27.292 31.508 30.323 31.324C29.862 37.549 30.088 43.815 30.991 50Z" fill="#797EF3"/>
<path d="M43.765 27.989C44.048 29.27 44.592 30.512 44.602 31.825C44.33 31.891 44.077 31.674 43.89 31.466C41.913 29.263 41.285 26.188 40.87 23.257C40.614 21.447 39.957 18.441 40.815 16.727C41.252 15.854 42.834 14.839 43.738 15.679C44.807 16.674 43.945 20.182 43.803 21.459C43.562 23.625 43.288 25.833 43.765 27.989Z" fill="#444DF2"/>
<path d="M28.172 3.34399C27.329 2.86499 26.454 2.44199 25.547 2.08599C21.674 0.567988 17.125 0.413988 13.457 2.37899C10.23 4.10799 7.97004 7.30699 6.75304 10.76C5.53604 14.213 5.26803 17.926 5.24903 21.586C5.22503 26.036 5.55403 30.483 6.10203 34.898C6.45203 37.722 7.32603 44.982 11.105 45.132C15.744 45.315 20.4 45.085 24.999 44.449C28.916 43.908 35.37 46.89 38.5 44.2C40.369 42.593 39.687 36.818 40.489 34.487C41.464 31.655 42.191 28.71 42.278 25.716C42.393 21.769 41.366 17.794 39.353 14.397C38.282 12.59 36.945 10.952 35.519 9.40999C33.356 7.07199 30.929 4.90999 28.172 3.34399Z" fill="#444DF2"/>
<path d="M30.991 50H12.629C13.074 48.369 13.435 46.924 13.502 46.621C14.087 43.94 14.457 41.22 14.605 38.491C14.682 37.076 14.7 35.658 14.658 34.242C14.629 33.261 14.182 31.693 14.627 30.758C15.479 28.965 19.44 31.07 21.199 31.299C24.22 31.693 27.292 31.508 30.323 31.324C29.862 37.549 30.088 43.815 30.991 50Z" fill="#E8AE8E"/>
<path d="M14.873 37.419C17.929 40.701 22.137 42.782 26.654 43.948C30.954 45.058 36.017 45.189 39.309 42.208C42.075 39.704 42.829 35.696 43.113 31.975C43.453 27.517 43.345 23.037 43.15 18.571C43.065 16.629 42.962 14.674 42.496 12.788C41.791 9.93601 40.03 6.14601 37.242 4.88001C33.874 3.35101 29.839 2.94801 26.195 3.36001C23.558 3.65801 20.875 3.97401 18.451 5.05101C16.273 6.01901 13.45 7.25401 12.287 9.41501C10.812 12.155 9.97301 15.323 9.61601 18.401C9.07401 23.069 9.70701 27.887 11.522 32.227C12.353 34.22 13.496 35.941 14.873 37.419Z" fill="#F4C19F"/>
<path d="M12.308 19.195C11.669 18.44 10.776 17.937 9.55699 17.909C7.76599 17.868 6.05099 19.102 5.40299 20.773C4.35999 23.464 6.10399 26.748 8.45499 28.136C10.543 29.368 12.994 28.65 13.603 26.213C13.873 25.132 13.767 23.998 13.658 22.889C13.528 21.553 13.128 20.165 12.308 19.195Z" fill="#F4C19F"/>
<path d="M8.38294 25.887C8.10094 25.887 7.86094 25.671 7.83594 25.385C7.75494 24.453 8.11994 23.893 8.43994 23.587C9.02294 23.03 9.87394 22.885 10.4909 22.862C10.3979 22.651 10.2619 22.475 10.0809 22.331C9.25894 21.677 7.78094 21.879 7.76594 21.881C7.46594 21.927 7.18494 21.72 7.13994 21.42C7.09394 21.12 7.30094 20.839 7.60094 20.794C7.67994 20.782 9.55794 20.511 10.7649 21.47C11.3429 21.93 11.6689 22.578 11.7319 23.395C11.7449 23.56 11.6819 23.723 11.5619 23.837C11.4409 23.951 11.2759 24.004 11.1109 23.983C10.7449 23.936 9.68594 23.916 9.19794 24.384C8.98394 24.59 8.89694 24.886 8.93194 25.29C8.95794 25.593 8.73394 25.859 8.43194 25.886C8.41494 25.886 8.39894 25.887 8.38294 25.887Z" fill="#EAAA7F"/>
<path d="M21.344 16.666C21.341 16.67 21.339 16.674 21.336 16.678C21.006 17.161 19.839 17.113 19.335 17.177C18.916 17.23 12.974 17.756 12.946 17.477C13.173 19.792 13.4 22.108 13.627 24.423C13.915 27.365 14.16 30.525 12.692 33.091C13.229 29.178 12.525 25.104 10.706 21.598C10.127 20.481 9.42799 19.395 9.18199 18.161C8.97099 17.099 9.11199 15.999 9.33599 14.94C9.89599 12.302 10.977 9.77599 12.499 7.54999C15.294 3.46399 20.366 1.37799 25.181 1.03599C27.321 0.883988 29.473 0.905988 31.609 1.10199C34.669 1.38299 38.154 2.37899 40.174 4.84799C41.363 6.30199 42.124 8.04999 42.87 9.77399C43.04 10.167 45.406 17.406 44.807 17.275C43.589 17.01 42.372 16.745 41.154 16.48C39.847 16.196 38.539 15.911 37.213 15.736C34.504 15.379 31.765 15.489 29.051 15.727C28.34 15.789 23.907 16.802 23.553 15.781C22.967 14.091 22.38 12.401 21.794 10.711C21.698 10.435 21.295 10.141 21.202 10.418C21.204 11.579 21.91 15.791 21.344 16.666Z" fill="#444DF2"/>
<path d="M31.633 31.355C31.33 31.355 31.084 31.11 31.083 30.807C31.082 30.503 31.327 30.256 31.63 30.255C31.666 30.255 35.18 30.211 35.38 28.263C35.459 27.489 35.227 27.22 34.806 26.733C34.114 25.933 33.167 24.837 33.23 21.289C33.235 20.989 33.48 20.749 33.78 20.749C33.783 20.749 33.787 20.749 33.79 20.749C34.094 20.754 34.336 21.005 34.33 21.309C34.274 24.437 35.03 25.311 35.638 26.014C36.112 26.562 36.602 27.13 36.474 28.376C36.173 31.304 31.82 31.355 31.635 31.356C31.635 31.355 31.634 31.355 31.633 31.355Z" fill="#1B1464"/>
<path d="M27.2161 26.0426C28.018 25.99 28.5963 24.8541 28.5078 23.5055C28.4193 22.1569 27.6974 21.1063 26.8956 21.1589C26.0937 21.2115 25.5154 22.3475 25.6039 23.6961C25.6924 25.0447 26.4142 26.0953 27.2161 26.0426Z" fill="#1B1464"/>
<path d="M38.3267 25.7306C39.1286 25.6779 39.7069 24.542 39.6184 23.1934C39.5298 21.8448 38.808 20.7942 38.0061 20.8468C37.2043 20.8995 36.626 22.0354 36.7145 23.384C36.803 24.7326 37.5248 25.7832 38.3267 25.7306Z" fill="#1B1464"/>
<path d="M41.064 20.601C40.951 20.601 40.838 20.567 40.74 20.495C38.339 18.74 36.18 19.286 36.089 19.31C35.796 19.388 35.495 19.215 35.416 18.922C35.337 18.63 35.508 18.329 35.799 18.248C35.91 18.218 38.541 17.525 41.389 19.606C41.634 19.785 41.688 20.129 41.509 20.375C41.401 20.523 41.234 20.601 41.064 20.601Z" fill="#1B1464"/>
<path d="M21.542 21.198C21.456 21.198 21.368 21.178 21.286 21.134C21.017 20.992 20.914 20.66 21.056 20.391C21.111 20.287 22.458 17.858 28.165 17.858C28.215 17.858 28.265 17.858 28.316 17.859C28.62 17.861 28.864 18.109 28.862 18.413C28.86 18.715 28.614 18.959 28.312 18.959C28.311 18.959 28.309 18.959 28.308 18.959C23.22 18.922 22.039 20.884 22.029 20.904C21.931 21.091 21.74 21.198 21.542 21.198Z" fill="#1B1464"/>
<path d="M30.7179 36.0211C26.3649 36.0211 23.4689 32.4961 23.3389 32.3361C23.1479 32.1001 23.1849 31.7531 23.4219 31.5631C23.6579 31.3721 24.0039 31.4091 24.1949 31.6461C24.2399 31.7011 27.2949 35.3901 31.5669 34.8701C31.8689 34.8341 32.1429 35.0481 32.1789 35.3501C32.2159 35.6511 32.0009 35.9261 31.6989 35.9621C31.3649 36.0021 31.0369 36.0211 30.7179 36.0211Z" fill="#1B1464"/>
<path d="M30.081 45.1C23.67 45.1 17.124 40.197 16.849 39.988C16.607 39.805 16.559 39.46 16.743 39.218C16.926 38.976 17.271 38.928 17.514 39.111C17.579 39.16 24.044 43.999 30.082 43.999C30.386 43.999 30.632 44.245 30.632 44.549C30.632 44.853 30.385 45.1 30.081 45.1Z" fill="#1B1464"/>
</g>
<circle cx="43" cy="43" r="6" fill="#92C83E" stroke="white" stroke-width="2"/>
<defs>
<clipPath id="clip0_115855_8563">
<rect width="50" height="50" rx="25" fill="white"/>
</clipPath>
</defs>
</svg>
